name ./resultDataOpenSim/trcMotMarkerGrf/sub10/grf-14-03.mot
datacolumns 19
datarows 27
range 0.96800000 1.07200000
endheader

                time	     ground_force_vx	     ground_force_vy	     ground_force_vz	     ground_force_px	     ground_force_py	     ground_force_pz	   l_ground_force_vx	   l_ground_force_vy	   l_ground_force_vz	   l_ground_force_px	   l_ground_force_py	   l_ground_force_pz	     ground_torque_x	     ground_torque_y	     ground_torque_z	   l_ground_torque_x	   l_ground_torque_y	   l_ground_torque_z	
          0.96800000	          0.00000000	          0.00000000	          0.00000000	          0.00000000	          0.00000000	          0.00000000	          5.19315488	        641.62194117	         14.83563558	          0.01993560	         -0.07500100	         -0.08598399	          0.00000000	          0.00000000	          0.00000000	          0.00000000	         -5.98285665	          0.00000000	
          0.97200000	          0.00000000	          0.00000000	          0.00000000	          0.00000000	          0.00000000	          0.00000000	          9.57541630	        649.47987786	         14.53191873	          0.02029857	         -0.07500100	         -0.08552284	          0.00000000	          0.00000000	          0.00000000	          0.00000000	         -6.00912252	          0.00000000	
          0.97600000	          0.00000000	          0.00000000	          0.00000000	          0.00000000	          0.00000000	          0.00000000	         14.19887676	        657.30957494	         14.15856569	          0.02056888	         -0.07500100	         -0.08510930	          0.00000000	          0.00000000	          0.00000000	          0.00000000	         -6.02420525	          0.00000000	
          0.98000000	          0.00000000	          0.00000000	          0.00000000	          0.00000000	          0.00000000	          0.00000000	         18.98065277	        665.04658337	         13.70063487	          0.02074367	         -0.07500100	         -0.08475470	          0.00000000	          0.00000000	          0.00000000	          0.00000000	         -6.03444842	          0.00000000	
          0.98400000	          0.00000000	          0.00000000	          0.00000000	          0.00000000	          0.00000000	          0.00000000	         23.89393960	        672.57649506	         13.16797467	          0.02086687	         -0.07500105	         -0.08444736	          0.00000000	          0.00000000	          0.00000000	          0.00000000	         -6.04650869	          0.00000000	
          0.98800000	          0.00000000	          0.00000000	          0.00000000	          0.00000000	          0.00000000	          0.00000000	         28.95430877	        679.77195060	         12.58478973	          0.02099089	         -0.07500141	         -0.08417363	          0.00000000	          0.00000000	          0.00000000	          0.00000000	         -6.06623709	          0.00000000	
          0.99200000	          0.00000000	          0.00000000	          0.00000000	          0.00000000	          0.00000000	          0.00000000	         34.15196873	        686.57987005	         11.96781306	          0.02113655	         -0.07500200	         -0.08391954	          0.00000000	          0.00000000	          0.00000000	          0.00000000	         -6.09783353	          0.00000000	
          0.99600000	          0.00000000	          0.00000000	          0.00000000	          0.00000000	          0.00000000	          0.00000000	         39.40331713	        693.07579903	         11.30638862	          0.02131751	         -0.07500200	         -0.08365755	          0.00000000	          0.00000000	          0.00000000	          0.00000000	         -6.14336707	          0.00000000	
          1.00000000	          0.00000000	          0.00000000	          0.00000000	          0.00000000	          0.00000000	          0.00000000	         44.57792890	        699.42168556	         10.56611563	          0.02155690	         -0.07500200	         -0.08335467	          0.00000000	          0.00000000	          0.00000000	          0.00000000	         -6.20258312	          0.00000000	
          1.00400000	          0.00000000	          0.00000000	          0.00000000	          0.00000000	          0.00000000	          0.00000000	         49.56074231	        705.75654557	          9.72909394	          0.02186939	         -0.07500200	         -0.08299027	          0.00000000	          0.00000000	          0.00000000	          0.00000000	         -6.27292837	          0.00000000	
          1.00800000	          0.00000000	          0.00000000	          0.00000000	          0.00000000	          0.00000000	          0.00000000	         54.29475371	        712.09198409	          8.83566179	          0.02223046	         -0.07500200	         -0.08257753	          0.00000000	          0.00000000	          0.00000000	          0.00000000	         -6.34982855	          0.00000000	
          1.01200000	          0.00000000	          0.00000000	          0.00000000	          0.00000000	          0.00000000	          0.00000000	         58.80571257	        718.29467346	          7.97473897	          0.02261273	         -0.07500112	         -0.08214532	          0.00000000	          0.00000000	          0.00000000	          0.00000000	         -6.42726023	          0.00000000	
          1.01600000	          0.00000000	          0.00000000	          0.00000000	          0.00000000	          0.00000000	          0.00000000	         63.20855662	        724.19032138	          7.22274000	          0.02301284	         -0.07500100	         -0.08171570	          0.00000000	          0.00000000	          0.00000000	          0.00000000	         -6.49852186	          0.00000000	
          1.02000000	          0.00000000	          0.00000000	          0.00000000	          0.00000000	          0.00000000	          0.00000000	         67.67848846	        729.69339000	          6.58738235	          0.02344030	         -0.07500100	         -0.08129065	          0.00000000	          0.00000000	          0.00000000	          0.00000000	         -6.55694736	          0.00000000	
          1.02400000	          0.00000000	          0.00000000	          0.00000000	          0.00000000	          0.00000000	          0.00000000	         72.40211717	        734.82929964	          6.01120110	          0.02390363	         -0.07500100	         -0.08085797	          0.00000000	          0.00000000	          0.00000000	          0.00000000	         -6.59629276	          0.00000000	
          1.02800000	          0.00000000	          0.00000000	          0.00000000	          0.00000000	          0.00000000	          0.00000000	         77.53900544	        739.65130524	          5.42703500	          0.02439927	         -0.07500100	         -0.08041303	          0.00000000	          0.00000000	          0.00000000	          0.00000000	         -6.61071881	          0.00000000	
          1.03200000	          0.00000000	          0.00000000	          0.00000000	          0.00000000	          0.00000000	          0.00000000	         83.19436563	        744.16068391	          4.80707688	          0.02491062	         -0.07500100	         -0.07997399	          0.00000000	          0.00000000	          0.00000000	          0.00000000	         -6.59454678	          0.00000000	
          1.03600000	          0.00000000	          0.00000000	          0.00000000	          0.00000000	          0.00000000	          0.00000000	         89.39452823	        748.29426278	          4.17600997	          0.02540567	         -0.07500100	         -0.07957813	          0.00000000	          0.00000000	          0.00000000	          0.00000000	         -6.54209604	          0.00000000	
          1.04000000	          0.00000000	          0.00000000	          0.00000000	          0.00000000	          0.00000000	          0.00000000	         96.08307153	        751.94922789	          3.60247124	          0.02584967	         -0.07500100	         -0.07925701	          0.00000000	          0.00000000	          0.00000000	          0.00000000	         -6.44784978	          0.00000000	
          1.04400000	          0.00000000	          0.00000000	          0.00000000	          0.00000000	          0.00000000	          0.00000000	        103.14633791	        754.98131224	          3.17453663	          0.02622213	         -0.07500100	         -0.07901920	          0.00000000	          0.00000000	          0.00000000	          0.00000000	         -6.30700413	          0.00000000	
          1.04800000	          0.00000000	          0.00000000	          0.00000000	          0.00000000	          0.00000000	          0.00000000	        110.44792356	        757.18002731	          2.96055462	          0.02652302	         -0.07500100	         -0.07886163	          0.00000000	          0.00000000	          0.00000000	          0.00000000	         -6.11627461	          0.00000000	
          1.05200000	          0.00000000	          0.00000000	          0.00000000	          0.00000000	          0.00000000	          0.00000000	        117.85744093	        758.29029834	          2.98257828	          0.02676610	         -0.07500100	         -0.07878026	          0.00000000	          0.00000000	          0.00000000	          0.00000000	         -5.87476495	          0.00000000	
          1.05600000	          0.00000000	          0.00000000	          0.00000000	          0.00000000	          0.00000000	          0.00000000	        125.26738190	        758.08963959	          3.22203077	          0.02696743	         -0.07500100	         -0.07876491	          0.00000000	          0.00000000	          0.00000000	          0.00000000	         -5.58472519	          0.00000000	
          1.06000000	          0.00000000	          0.00000000	          0.00000000	          0.00000000	          0.00000000	          0.00000000	        132.59546502	        756.45623291	          3.63738995	          0.02713843	         -0.07500100	         -0.07879928	          0.00000000	          0.00000000	          0.00000000	          0.00000000	         -5.25203645	          0.00000000	
          1.06400000	          0.00000000	          0.00000000	          0.00000000	          0.00000000	          0.00000000	          0.00000000	        139.77726437	        753.37517787	          4.17010619	          0.02729084	         -0.07500100	         -0.07886329	          0.00000000	          0.00000000	          0.00000000	          0.00000000	         -4.88622095	          0.00000000	
          1.06800000	          0.00000000	          0.00000000	          0.00000000	          0.00000000	          0.00000000	          0.00000000	        146.74667136	        748.87072453	          4.74383498	          0.02744228	         -0.07500100	         -0.07892541	          0.00000000	          0.00000000	          0.00000000	          0.00000000	         -4.49977609	          0.00000000	
          1.07200000	          0.00000000	          0.00000000	          0.00000000	          0.00000000	          0.00000000	          0.00000000	        153.40794464	        742.89918046	          5.27331891	          0.02760228	         -0.07500072	         -0.07895247	          0.00000000	          0.00000000	          0.00000000	          0.00000000	         -4.10678333	          0.00000000	
